<?xml version="1.0" encoding="utf-8"?>
<!-- Generator: Adobe Illustrator 26.1.0, SVG Export Plug-In . SVG Version: 6.00 Build 0)  -->
<svg version="1.1" id="Layer_1" xmlns="http://www.w3.org/2000/svg" xmlns:xlink="http://www.w3.org/1999/xlink" x="0px" y="0px"
	 viewBox="0 0 499 227.5" style="enable-background:new 0 0 499 227.5;" xml:space="preserve">
<style type="text/css">
	.st0{fill:#E24288;}
	.st1{fill:#B0C635;}
	.st2{fill:#EA8A24;}
	.st3{fill:#808281;}
</style>
<g>
	<circle class="st0" cx="123.4" cy="77.4" r="14.2"/>
	<circle class="st1" cx="249.3" cy="77.4" r="14.2"/>
	<circle class="st2" cx="375.3" cy="77.4" r="14.2"/>
	<g>
		<g>
			<circle class="st0" cx="123.4" cy="29.1" r="29.1"/>
			<g>
				<circle class="st0" cx="94.3" cy="118.7" r="29.1"/>
				<circle class="st0" cx="152.5" cy="118.2" r="29.1"/>
			</g>
			<g>
				<circle class="st0" cx="76" cy="62.9" r="29.1"/>
				<path class="st0" d="M183.5,89.1c-3.8,1.9-8.1,2.9-12.7,2.9c-3.1,0-6.1-0.5-8.9-1.4c-0.1,0-0.3-0.1-0.4-0.1
					c-11.5-3.9-19.7-14.8-19.7-27.6c0-6.2,1.9-12,5.3-16.7c0.1-0.1,0.2-0.2,0.3-0.4c5.3-7.3,13.9-12,23.6-12c4.5,0,8.9,1,12.7,2.9
					c-8.3,5.8-13.7,15.4-13.7,26.2S175.3,83.3,183.5,89.1z"/>
			</g>
		</g>
	</g>
	<g>
		<g>
			<circle class="st2" cx="375.5" cy="29.1" r="29.1"/>
			<g>
				<circle class="st2" cx="346.4" cy="118.7" r="29.1"/>
				<circle class="st2" cx="404.6" cy="118.2" r="29.1"/>
			</g>
			<g>
				<path class="st2" d="M357.2,62.9c0,16.1-13,29.1-29.1,29.1c-4.6,0-9-1.1-12.8-3c8.2-5.8,13.6-15.4,13.6-26.1
					c0-10.8-5.4-20.3-13.6-26.1c3.9-1.9,8.2-3,12.8-3c9.7,0,18.4,4.8,23.6,12.1c0.1,0.1,0.1,0.1,0.2,0.2
					C355.2,50.9,357.2,56.7,357.2,62.9z"/>
				<circle class="st2" cx="422.9" cy="62.9" r="29.1"/>
			</g>
		</g>
	</g>
	<g>
		<g>
			<g>
				<path class="st3" d="M40.6,224.4H0V168h4.6v52h36V224.4z"/>
				<path class="st3" d="M96.3,194.6c0,1.6,0.4,2.9,1.4,3.7c0.9,0.8,2.1,1.4,3.5,1.8s3.1,0.7,5,0.8c1.9,0.1,3.8,0.2,5.7,0.4
					c2,0.1,3.9,0.4,5.7,0.7c1.9,0.3,3.5,0.9,5,1.8c1.5,0.9,2.6,2,3.5,3.5c0.9,1.5,1.4,3.5,1.4,6c0,4.2-1.6,7.4-4.9,9.5
					c-3.3,2.1-7.9,3.1-14,3.1c-12.7,0-19.1-4.5-19.1-13.5h5.1c0,6.1,4.7,9.1,14.1,9.1c4.3,0,7.7-0.7,10.1-2c2.4-1.3,3.7-3.4,3.7-6.3
					c0-1.9-0.5-3.3-1.4-4.3c-0.9-1-2.1-1.7-3.5-2.2c-1.5-0.5-3.1-0.8-5-1c-1.9-0.1-3.8-0.3-5.7-0.4c-2-0.1-3.9-0.3-5.7-0.6
					c-1.9-0.3-3.5-0.8-5-1.5c-1.5-0.7-2.6-1.8-3.5-3.2c-0.9-1.4-1.4-3.2-1.4-5.6c0-1.9,0.4-3.6,1.2-5.1c0.8-1.5,2-2.7,3.5-3.7
					c1.5-1,3.3-1.7,5.5-2.2c2.1-0.5,4.5-0.8,7-0.8c2.6,0,5,0.3,7,0.8c2.1,0.6,3.9,1.4,5.4,2.4c1.5,1.1,2.7,2.4,3.5,3.9
					c0.8,1.6,1.2,3.3,1.2,5.3h-5.1c0-2.9-1-5-3.1-6.2c-2.1-1.2-5.1-1.9-9.1-1.9c-3.7,0.1-6.6,0.6-8.8,1.7
					C97.4,190.1,96.3,192,96.3,194.6z"/>
				<path class="st3" d="M137.6,194.6c0,1.6,0.4,2.9,1.4,3.7c0.9,0.8,2.1,1.4,3.5,1.8c1.5,0.4,3.1,0.7,5,0.8
					c1.9,0.1,3.8,0.2,5.7,0.4c2,0.1,3.9,0.4,5.7,0.7c1.9,0.3,3.5,0.9,5,1.8c1.5,0.9,2.6,2,3.5,3.5c0.9,1.5,1.4,3.5,1.4,6
					c0,4.2-1.6,7.4-4.9,9.5c-3.3,2.1-7.9,3.1-14,3.1c-12.7,0-19.1-4.5-19.1-13.5h5.1c0,6.1,4.7,9.1,14.1,9.1c4.3,0,7.7-0.7,10.1-2
					c2.4-1.3,3.7-3.4,3.7-6.3c0-1.9-0.5-3.3-1.4-4.3c-0.9-1-2.1-1.7-3.5-2.2c-1.5-0.5-3.1-0.8-5-1c-1.9-0.1-3.8-0.3-5.7-0.4
					c-2-0.1-3.9-0.3-5.7-0.6c-1.9-0.3-3.5-0.8-5-1.5c-1.5-0.7-2.6-1.8-3.5-3.2c-0.9-1.4-1.4-3.2-1.4-5.6c0-1.9,0.4-3.6,1.2-5.1
					c0.8-1.5,2-2.7,3.5-3.7c1.5-1,3.3-1.7,5.5-2.2c2.1-0.5,4.5-0.8,7-0.8c2.6,0,5,0.3,7,0.8c2.1,0.6,3.9,1.4,5.4,2.4
					c1.5,1.1,2.7,2.4,3.5,3.9c0.8,1.6,1.2,3.3,1.2,5.3h-5.1c0-2.9-1-5-3.1-6.2c-2.1-1.2-5.1-1.9-9.1-1.9c-3.7,0.1-6.6,0.6-8.8,1.7
					C138.7,190.1,137.6,192,137.6,194.6z"/>
				<path class="st3" d="M221.3,224.4v-39.8h4.6v6.8h0.2c0.7-1.2,1.7-2.3,2.8-3.3c1.1-1,2.4-1.9,3.8-2.7c1.4-0.8,2.8-1.4,4.3-1.8
					c1.5-0.4,3-0.6,4.6-0.6c5,0,8.9,1.3,11.5,3.8c2.6,2.5,3.9,6.5,3.9,12.1v25.6h-4.6v-24.5c0-4.3-0.9-7.5-2.8-9.5
					c-1.9-2-5.1-3.1-9.7-3.1c-1.9,0-3.6,0.4-5.3,1.2c-1.7,0.8-3.2,1.8-4.5,3c-1.3,1.2-2.4,2.6-3.1,4.1c-0.8,1.5-1.2,2.9-1.2,4.3
					v24.5H221.3z"/>
			</g>
			<path class="st3" d="M78.4,204v0.8c0-0.1,0-0.3,0-0.4C78.4,204.3,78.4,204.2,78.4,204z"/>
			<path class="st3" d="M78.4,182.9v7.4c-3.9-4.5-9.7-7.4-16.2-7.4c-11.9,0-21.5,9.6-21.5,21.5c0,11.9,9.6,21.5,21.5,21.5
				c6.5,0,12.3-2.9,16.2-7.4v7.4h5.6v-43H78.4z M62.2,220.7c-9,0-16.2-7.3-16.2-16.2c0-9,7.3-16.2,16.2-16.2c8.8,0,16,7,16.2,15.8
				c0,0.1,0,0.3,0,0.4c0,0.1,0,0.3,0,0.4C78.2,213.6,71,220.7,62.2,220.7z"/>
			<path class="st3" d="M208.6,182.9v7.4c-3.9-4.5-9.7-7.4-16.2-7.4c-11.9,0-21.5,9.6-21.5,21.5c0,11.9,9.6,21.5,21.5,21.5
				c6.5,0,12.3-2.9,16.2-7.4v7.4h5.6v-43H208.6z M192.4,220.7c-9,0-16.2-7.3-16.2-16.2c0-9,7.3-16.2,16.2-16.2c8.8,0,16,7,16.2,15.8
				c0,0.1,0,0.3,0,0.4c0,0.1,0,0.3,0,0.4C208.4,213.6,201.2,220.7,192.4,220.7z"/>
			<path class="st3" d="M301.1,182.9v7.4c-3.9-4.5-9.7-7.4-16.2-7.4c-11.9,0-21.5,9.6-21.5,21.5c0,11.9,9.6,21.5,21.5,21.5
				c6.5,0,12.3-2.9,16.2-7.4v7.4h5.6v-43H301.1z M284.9,220.7c-9,0-16.2-7.3-16.2-16.2c0-9,7.3-16.2,16.2-16.2c8.8,0,16,7,16.2,15.8
				c0,0.1,0,0.3,0,0.4c0,0.1,0,0.3,0,0.4C300.9,213.6,293.7,220.7,284.9,220.7z"/>
			<path class="st3" d="M78.4,204.4c0,0.1,0,0.3,0,0.4V204C78.4,204.2,78.4,204.3,78.4,204.4z"/>
			<path class="st3" d="M78.4,204.4c0,0.1,0,0.3,0,0.4V204C78.4,204.2,78.4,204.3,78.4,204.4z"/>
			<path class="st3" d="M321.5,225.9H320c-2.1,0-3.8-1.7-3.8-3.8v0c0-2.1,1.7-3.8,3.8-3.8h1.5c2.1,0,3.8,1.7,3.8,3.8v0
				C325.3,224.2,323.6,225.9,321.5,225.9z"/>
			<path class="st3" d="M402.8,178.2c-13.1,0-23.7,11-23.7,24.6c0,13.6,10.6,24.6,23.7,24.6c13.1,0,23.7-11,23.7-24.6
				C426.5,189.2,415.9,178.2,402.8,178.2z M402.8,223.1c-10.7,0-19.4-9.1-19.4-20.3c0-11.2,8.7-20.3,19.4-20.3
				c10.7,0,19.4,9.1,19.4,20.3C422.1,214,413.4,223.1,402.8,223.1z"/>
			<path class="st3" d="M372.3,209.6c-2.7,7.9-9.8,13.5-18.3,13.5c-10.7,0-19.4-9.1-19.4-20.3c0-11.2,8.7-20.3,19.4-20.3
				c7.9,0,14.7,4.9,17.7,12l4.2-1.3c-3.6-8.9-12-15.1-21.9-15.1c-13.1,0-23.7,11-23.7,24.6c0,13.6,10.6,24.6,23.7,24.6
				c10.4,0,19.2-6.9,22.4-16.6L372.3,209.6z"/>
			<line class="st3" x1="375.9" y1="193.3" x2="371.7" y2="194.6"/>
			<polyline class="st3" points="376.4,210.9 372.3,209.6 372.3,209.6 			"/>
			<path class="st3" d="M499,192.6v33.3h-4.7v-30c0-2.7-0.7-5.3-2-7.6c-1.9-3.2-5-5.8-10.2-5.8c-4.2,0-7.3,1.4-9.6,3.5
				c-3,2.7-4.7,6.6-4.7,10.6v29.3h-4.7v-27.2c0,0,0.2-1.6,0-3.8c-0.4-4.8-2.5-12.4-12-12.4c-6,0-9.7,2.8-11.9,6c-2,2.8-3,6.2-3,9.7
				v27.7h-4.7v-46.7h4.7v5.6c1.9-1.9,7.4-6.6,14.6-6.6c11.8,0,14.9,7.7,14.9,7.7v0h0.6c0,0,6.4-7.7,15.5-7.7c6,0,10,1.7,12.5,3.9
				C498.3,185.7,498.9,190.6,499,192.6z"/>
		</g>
	</g>
	<g>
		<g>
			<circle class="st1" cx="249.3" cy="29.1" r="29.1"/>
			<g>
				<circle class="st1" cx="220.2" cy="118.7" r="29.1"/>
				<circle class="st1" cx="278.5" cy="118.2" r="29.1"/>
			</g>
			<g>
				<circle class="st1" cx="201.9" cy="62.9" r="29.1"/>
				<circle class="st1" cx="296.8" cy="62.9" r="29.1"/>
			</g>
		</g>
	</g>
</g>
</svg>
